<svg width="322" height="366" viewBox="0 0 322 366" fill="none" xmlns="http://www.w3.org/2000/svg">
<path d="M83.5954 361.061L80.0229 135.695C80.0229 120.518 97.7937 112.232 110.687 116.152M125.573 201.191L123.786 135.695C123.786 124.571 118.027 118.383 110.687 116.152M110.687 116.152C120.214 94.313 161.059 81.8092 159.46 166.954M158.023 192.557C158.85 183.265 159.313 174.745 159.46 166.954M159.46 166.954C180.912 149.489 226.198 123.31 245.252 201.191C248.821 215.779 225.283 224.676 215.481 201.191C200.584 165.5 163.865 204.347 167.55 234.534C168.8 244.781 172.015 254.266 177.076 260.733C185.412 271.384 206.669 276.631 215.481 247.336C219.063 235.427 240.744 227.092 247.634 244.954C255.672 265.794 235.13 327.718 174.397 308.962C171.618 307.672 171.063 315.273 174.397 357.191M130.336 74.3664L121.107 5M201.191 116.152L247.634 37.7481M59.4809 135.695L5 103.84M261.924 182.435L317 164.275" stroke="#FF6B19" stroke-width="8.9313" stroke-linecap="round"/>
</svg>
